<svg xmlns="http://www.w3.org/2000/svg" xmlns:xlink="http://www.w3.org/1999/xlink" id="Layer_1" width="40" height="40" x="0" y="0" enable-background="new 0 0 40 40" version="1.1" viewBox="0 0 40 40" xml:space="preserve"><g><path fill="#000" d="M22.1,10.8h1.2v5c0,0.3,0.1,0.4,0.3,0.4c0.2,0,0.6-0.3,0.7-0.5v-5h1.2v6.5h-1.2v-0.7 c-0.5,0.6-1,0.8-1.4,0.8c-0.7,0-0.9-0.5-0.9-1.2L22.1,10.8L22.1,10.8z" class="bg-color-body--svg"/><path fill="#000" d="M19.3,10.8c-1.1,0-1.8,0.7-1.8,1.8v3.2c0,1.2,0.6,1.8,1.8,1.8c1,0,1.8-0.7,1.8-1.8v-3.2 C21,11.5,20.3,10.8,19.3,10.8z M19.8,15.7c0,0.4-0.2,0.6-0.5,0.6s-0.5-0.3-0.5-0.6v-3c0-0.4,0.2-0.6,0.5-0.6c0.4,0,0.5,0.3,0.5,0.6 V15.7z" class="bg-color-body--svg"/><polygon fill="#000" points="14.3 8.5 15.3 12 16.2 8.5 17.6 8.5 16 13.8 16 17.4 14.6 17.4 14.6 13.8 13 8.5" class="bg-color-body--svg"/><g><path fill="#000" d="M26.4,24.1c-0.4,0-0.5,0.3-0.5,0.7v0.6h1v-0.6C26.9,24.4,26.8,24.1,26.4,24.1z" class="bg-color-body--svg"/><path fill="#000" d="M21.9,24.1c-0.1,0-0.2,0.1-0.2,0.2v3.9c0.1,0.1,0.2,0.2,0.3,0.2c0.2,0.1,0.5,0.1,0.6-0.1 c0.1-0.1,0.1-0.2,0.1-0.4v-3.2c0-0.2,0-0.4-0.1-0.5C22.4,24.1,22.1,24,21.9,24.1z" class="bg-color-body--svg"/><path fill="#000" d="M27.2,18.9H12.8c-1.5,0-2.8,1.2-2.8,2.8v7.1c0,1.5,1.2,2.8,2.8,2.8h14.3c1.5,0,2.8-1.2,2.8-2.8v-7.1 C30,20.1,28.7,18.9,27.2,18.9z M14.7,29.4h-1.3v-7.2H12V21h4v1.2h-1.4L14.7,29.4L14.7,29.4z M19.4,29.4h-1.2v-0.7 c-0.2,0.3-0.4,0.4-0.7,0.6c-0.6,0.4-1.5,0.4-1.5-0.9v-5.2h1.2V28c0,0.3,0.1,0.4,0.3,0.4c0.2,0,0.5-0.3,0.7-0.5v-4.7h1.2V29.4z M23.8,28.1c0,0.8-0.3,1.4-1.1,1.4c-0.4,0-0.8-0.2-1.1-0.6v0.5h-1.2V21h1.2v2.7c0.3-0.3,0.6-0.6,1-0.6c0.8,0,1.1,0.7,1.1,1.6v3.4 H23.8z M28.1,26.4h-2.2v1.2c0,0.5,0,0.9,0.5,0.9s0.5-0.3,0.5-0.9v-0.4h1.2v0.5c0,1.2-0.5,1.9-1.7,1.9c-1.1,0-1.7-0.8-1.7-1.9v-2.8 c0-1.1,0.7-1.8,1.8-1.8c1.1,0,1.6,0.7,1.6,1.8C28.1,24.9,28.1,26.4,28.1,26.4z" class="bg-color-body--svg"/></g></g></svg>