<svg version="1.1" id="Layer_1" xmlns="http://www.w3.org/2000/svg" xmlns:xlink="http://www.w3.org/1999/xlink" x="0px" y="0px"
   width="40px" height="40px" viewBox="0 0 40 40" enable-background="new 0 0 40 40" xml:space="preserve">
<path class="bg-color-body--svg" id="soundcloud-icon" d="M32.5,22.3c0,1.7-1.4,3-3,3H21V15c0.3-0.1,0.7-0.2,1-0.3c0.3,0,0.6-0.1,0.8-0.1
  c2.8,0,5.1,2.2,5.4,4.9c0.4-0.2,0.8-0.3,1.2-0.3C31.1,19.3,32.5,20.7,32.5,22.3z M17.9,17v8.4h1v-9c-0.2,0.2-0.4,0.5-0.6,0.8
  C18.2,17.1,18,17.1,17.9,17z M19.4,25.4h1V15.2c-0.4,0.2-0.7,0.4-1,0.7V25.4z M13.1,18.1v7.3h1v-8.1C13.7,17.5,13.3,17.7,13.1,18.1z
   M10,19.6v5.8c0.1,0,0.2,0,0.4,0h0.5v-5.8c-0.2,0-0.3,0-0.5,0C10.3,19.6,10.2,19.6,10,19.6z M8.7,24.8c0.2,0.2,0.5,0.3,0.8,0.4v-5.5
  c-0.3,0.1-0.5,0.2-0.8,0.4V24.8z M11.5,19.8v5.6h1v-6.6c-0.2,0.4-0.4,0.8-0.5,1.2C11.8,19.9,11.7,19.8,11.5,19.8z M14.7,25.4h1v-8.7
  c-0.4,0-0.7,0.1-1,0.3V25.4z M16.3,25.4h1v-8.6c-0.3-0.1-0.7-0.1-1-0.1V25.4L16.3,25.4z M8.2,24.4v-3.8c-0.4,0.5-0.7,1.2-0.7,1.9
  C7.5,23.2,7.8,23.8,8.2,24.4z" fill="black"></path>
</svg>