<svg version="1.1" id="Layer_1" xmlns="http://www.w3.org/2000/svg" xmlns:xlink="http://www.w3.org/1999/xlink" x="0px" y="0px"
   width="40px" height="40px" viewBox="0 0 40 40" enable-background="new 0 0 40 40" xml:space="preserve">
<path class="bg-color-body--svg" id="tumblr-icon" d="M17.9,10c-0.1,1-0.4,1.9-0.7,2.5c-0.3,0.7-0.8,1.2-1.3,1.7c-0.6,0.5-1.2,0.8-2,1.1v2.8H16
  v7c0,0.9,0.1,1.6,0.3,2.1c0.2,0.5,0.5,0.9,1,1.4c0.5,0.4,1.1,0.8,1.8,1c0.7,0.2,1.5,0.3,2.4,0.3c0.8,0,1.6-0.1,2.2-0.2
  c0.7-0.2,1.5-0.4,2.3-0.8v-3.1c-1,0.7-2,1-3,1c-0.6,0-1.1-0.1-1.5-0.4c-0.3-0.2-0.6-0.5-0.7-0.8s-0.2-1.1-0.2-2.2v-5.1h4.7v-3.1
  h-4.7V10H17.9z" fill="black"></path>
</svg>