<svg xmlns="http://www.w3.org/2000/svg" version="1.1" x="0" y="0" width="460" height="120" viewBox="0 0 230 60" enable-background="new 0 0 230 60" xml:space="preserve" class="ng-scope"><path d="M172.7 49.6c-0.2-0.2-0.3-0.5-0.6-0.6 -0.4-0.2-0.7 0.3-0.9 0.6 -0.1 0.6 0.3 1.2 0.4 1.9 0.1 0.3 0 0.7 0.3 0.9l1.3-0.4 0-0.3C172.6 51.1 172.9 50.2 172.7 49.6M57.9 49c-0.6 0.4-0.6 1.1-0.6 1.7 0 0.4-0.5 0.6-0.4 1.1 0.4 0.2 0.9 0.4 1.4 0.4 0.3-0.8 0.5-1.7 0.7-2.6l-0.8-0.8C58 48.9 58 49 57.9 49M169.5 46.5l-0.3 0c-0.2 0.2-0.7 0.3-0.6 0.7 0.4 0.6 0.7 1.6 1.6 1.7 0.3-0.1 0.6-0.2 0.8-0.5 0-0.2 0.1-0.4 0-0.6L169.5 46.5 169.5 46.5zM59.5 48.8c0.5 0.2 0.8-0.1 1.2-0.4 0.3-0.4 0.7-0.8 0.8-1.3 -0.1-0.3-0.5-0.6-0.8-0.4 -0.4 0.7-1.9 0.7-1.5 1.8C59.2 48.5 59.3 48.7 59.5 48.8M141.1 45.1c-0.2 0-0.5 0-0.7 0l0 0c-0.3-0.1-0.7 0-1-0.1 -0.3 0.4-0.5 0.9-0.4 1.5 0.2 0.3 0.6 0.4 0.9 0.5 0.3 0 0.8 0.2 1-0.1 0.2-0.5 0.4-1.1 0.5-1.7C141.3 45.2 141.2 45.1 141.1 45.1M91.1 46.6c0.1-0.2-0.1-0.3-0.2-0.5 -0.2-0.4-0.3-0.9-0.6-1.3 -0.5 0-1.2 0-1.7 0.1l0 0c-0.2 0.1-0.3 0-0.5 0C88 45.1 88 45.2 88 45.3c0.7 0.4 0.9 1.3 1.3 1.9C90 47.5 90.6 47 91.1 46.6M127.2 44.6c-0.3 0.1-0.6 0-0.9 0 -0.4-0.2-0.4-0.6-0.5-0.9 0.1-0.1 0-0.3 0.2-0.4 0.4 0 0.8 0.2 1.1 0.5C127.2 44 127.4 44.3 127.2 44.6M127.2 37.5c-0.1-0.1-0.1-0.3-0.3-0.3 -0.6-0.2-1.1 0.4-1.5 0.7 -0.8 0.5-1 1.2-1.2 2 0 0.1-0.2 0.1-0.3 0.1 -0.4-0.4 0-0.9 0-1.3 0.4-1.3 1.8-2 2.6-3.2 0.8 0 0.8 0.8 1.2 1.3 0.1 0.4 0.6 0.8 0.1 1.2C127.5 38 127.2 37.8 127.2 37.5M103.8 43.8c0.4-0.3 0.7-0.7 1.3-0.5l0.1 0.3c0.1 0.3-0.1 0.6-0.2 0.8 -0.4 0.1-0.9 0.3-1.4 0.2C103.4 44.3 103.7 44.1 103.8 43.8M105.3 36.9c-0.2-0.1-0.5-0.1-0.7 0.1l-0.7 0.8c-0.2-0.1-0.1-0.5-0.1-0.7 0.2-0.6 0.6-1.2 0.8-1.8 0.1-0.2 0.4-0.1 0.6-0.1 0.7 0.4 0.8 1.2 1.4 1.7 0.5 0.7 0.8 1.7 0.4 2.6 -0.1 0-0.3 0.2-0.4 0C106.7 38.4 106.1 37.5 105.3 36.9M137.6 42.1l-1.7 2.3 -0.2 0.5c-0.2 0.5-0.1 1.2-0.1 1.7 -0.4-0.2-0.4-0.7-0.6-1.2 -0.4-1.6 1.2-2.6 1.8-3.9 -0.4-0.2-0.7-0.4-1.1-0.4 -0.9 1-1.4 2.2-2.1 3.4 0 0.4 0 0.7 0.1 1.1 -4 6.1-10.9 10.1-18.7 10.1 -7.4 0-14-3.7-18.1-9.3 0.3-0.5 0.6-1 0.5-1.7 0-0.9-0.9-1.4-1.2-2.2 -0.2-0.4-0.3-0.8-0.6-1.2 -0.5-0.2-1-0.4-1.5 0 0.6 1.2 1.3 2.3 1.8 3.4 0.1 1-0.4 1.8-1.1 2.5 -0.1 0.1-0.2 0-0.3-0.1 0.2-0.7 0.5-1.4 0.4-2.2 -0.7-1.3-1.6-2.5-2.2-3.8 0-0.2 0.1-0.5 0.3-0.6 0.7-0.3 1.5-0.2 2-0.8 0.6-1.1 1.1-2.2 1.2-3.5 0.1-0.1 0.1-0.2 0.3-0.1 0.1 0.1 0.1 0.2 0.2 0.3 0.2 1.4-0.2 2.7-0.8 3.8 -0.1 0.1 0 0.3 0.1 0.4 0.5 0.2 1 0 1.5-0.1 0.9-0.6 2.1-0.4 3.1-0.7 0 0.1 0.2 0.1 0.1 0.2 -0.5 0.5-0.7 1.2-0.8 1.9 -0.6 0.7-1.5 1.2-1.5 2.1 0.2 0.4 0.5 0 0.7 0 0.2 0 0.3 0.2 0.2 0.3 -0.2 0.4-0.7 0.8-0.7 1.3 0.2 0.6 0 1.4 0.8 1.7 1.8 0.3 3-1.1 4.8-1 1.4 0.3 2.5-0.3 3.4-1.3 0.2-0.1 0.5 0.1 0.7 0.1 1 1 2.1 1.6 3.4 1.8 0.4 0.1 0.9 0.1 1.3 0 0.1-0.1 0-0.3 0-0.3 -1-0.4-1.9-0.9-2.6-1.8 -0.4-1.1-0.9-2.2-1.7-3.1 -0.1-0.1-0.1-0.2 0-0.2 0.9 0.2 1.7 1.1 2.1 2 0.7 1.1 1.9 2.1 3.3 2 0.2 0 0.4 0 0.4-0.3 -2.2-0.7-2.5-3-4.2-4.3 -0.8-2.1-1.6-4.1-2-6.4 -0.1-2-1.2-3.7-2.5-5.2 -2-3-5.1-4.8-7.7-7L97.1 22c-0.3-0.2-0.7-0.4-1.1-0.5 3.1-4.9 8-8.5 13.8-9.8v7.5c-0.4-0.2-0.6-0.2-0.8-0.2 -2.6 0-4.9 2.4-4.9 4.1 0 1.1 0.9 1.7 2 1.7 1.3 0 2.8-0.7 4-1.9 0.9-1 1.2-1.9 1.2-3.6l0-7.9c1.2-0.2 2.4-0.3 3.6-0.3 3.2 0 6.2 0.7 8.9 1.9l0 3c-0.4-0.2-0.6-0.2-0.8-0.2 -2.6 0-4.9 2.4-4.9 4.1 0 1.1 0.9 1.7 2 1.7 1.3 0 2.8-0.7 4-1.9 0.9-1 1.2-1.9 1.2-3.6v-2.4c3.7 2 6.8 4.9 8.9 8.5 -2.9 2.2-6 3.9-8.7 6.5 -1.8 1.7-2.8 3.8-3.4 6 -1.4 3.9-1.7 8.6-5.8 11 0 0.1 0 0.2 0.1 0.3 0.9 0.2 1.9 0 2.6-0.8 0.6-1 1.4-1.9 2.3-2.8h0.2c0.3 0.1 0.1 0.3 0.1 0.5 -1.2 1.2-1.3 2.9-2.9 3.9 -0.2 0.2-0.7 0.4-0.3 0.7 1.8 0.2 3.2-1.2 4.4-2.3l0.3 0c0.7 0.4 1.3 1.4 2.2 1.2 1.9-0.5 3.2 0.7 4.7 1.2 0.5 0.2 0.8-0.2 1.1-0.4 0.7-0.5 0.3-1.3 0.3-2l0.1-0.1c0.3 0 0.7 0.3 0.9-0.1 0.1-0.9-0.6-1.5-1-2.2 -0.2-1.4-1.8-2.2-2-3.6 0.1-0.1 0.1-0.2 0.2-0.2 0.7 0.4 1.2 1 1.8 1.4 1 0.5 2.2 0.5 3.3 0.5 0.2 0 0.2-0.2 0.2-0.4 -0.6-1.4-1.1-2.8-1-4.4 0.1-0.5-0.1-1.3 0.5-1.4 0.2 0 0.2 0.2 0.3 0.3 0.1 1.5 0.1 3 0.8 4.3 0.4 0.9 1.3 1.4 2 2C137.6 41.3 137.7 41.8 137.6 42.1M95.4 27.6c0.2 0 0.3-0.1 0.5 0 0.4 0.3 0.6 0.8 0.8 1.2 0.2 0.8 0.3 1.8 0.1 2.6l-0.1 0.1c-0.1-0.2-0.1-0.5-0.2-0.7 -0.2-1-0.6-1.9-1.2-2.8C95.2 27.9 95.2 27.7 95.4 27.6M111.3 9l12.5-2.5 0 5.2c-2.8-1.1-5.8-1.8-8.9-1.8 -1.2 0-2.4 0.1-3.6 0.3L111.3 9 111.3 9zM135.9 25.8c0.3 0 0.5 0 0.6 0.3 0.1 0.5-0.4 0.8-0.8 1.2 -1 0.8-2 1.9-2.6 2.9h-0.1C133 28.3 134.3 26.8 135.9 25.8M168 47.9c-0.4-0.5-1.1-0.8-1.3-1.4 -0.4-0.9-0.2-2.1-1.1-2.7 -0.8-0.2-1.7 0-2.3-0.6 -0.3-0.3-0.5-0.7-0.3-1.2 0.5-1.1 0.8-2.3 0.6-3.6 0-0.4-0.5-0.9 0-1.2 1.5 0.4 3.5 0.6 4.9-0.3 1.3-0.8 2.1-2.1 2-3.7 -0.3-2.2-1.8-3.9-3.5-5.4 -0.2-0.2-0.4-0.4-0.4-0.7 0-0.2 0.1-0.4 0.2-0.4 0.9-0.1 1.8-0.2 2.6-0.6 1.4-0.8 1.7-2.3 1.5-3.8 -0.1-0.1-0.1-0.3-0.2-0.3 -0.4 0.4-0.8 0.6-1.3 0.8 -1.7 0.2-3.4 0.7-4.6 2 -0.4 0.5-0.5 1.5-0.1 2.1 1.1 2 3.6 3.3 4.1 5.5 0.3 1-0.1 1.8-0.8 2.5 -1.1 0.7-2.7 0.6-3.9 0 -2.7-1.4-5-3.8-8-4.5 -1.7-0.2-3.2-1-4.5-2.3 -1.1-0.9-2.6-1-3.9-1.4 -1.2-1.3-2.6-2-4.1-2.6 -0.8-0.4-1.9-0.3-2.6-0.9 -0.5-0.7-1.2-1.3-1.9-1.8 -1-0.6-2.5-1.1-3.7-0.4 -0.1 0.1-0.2 0.1-0.3 0.2 -2.3-3.9-5.7-7.1-9.8-9.1V2.2l-15.5 3.2v5c-6.4 1.4-11.8 5.4-15.1 10.8 -0.8 0-1.6 0.1-2.2 0.5 -1.8 1.6-4.1 2.2-6.2 3 -1.2 0.6-1.9 1.9-3.1 2.5 -1.6 0-3 0.4-4.2 1.4 -1 1.1-2.1 2-3.5 2.3 -2.4 0.1-4.5 1.1-6.2 2.9 -1.7 1.1-3.4 2.6-5.7 2.1 -0.8-0.2-1.7-1-2-1.8 -0.5-1.8 0.6-3.2 1.9-4.4 1.3-1.1 3-2.3 2.6-4.2 -0.3-1.6-2.1-1.9-3.4-2.2 -1.4 0-2.4-0.8-3.5-1.4 -0.3 0.4-0.4 0.9-0.3 1.4 0.1 1.3 1.1 2.6 2.3 2.9 0.8 0.4 1.9-0.2 2.6 0.4 0.2 0.2 0.1 0.4 0.1 0.7 -1.5 1.5-3.7 3-4.1 5.1 -0.3 1.7 0.3 3.3 1.6 4.4 1.4 1.1 3.7 1.4 5.4 0.6 0.2-0.1 0.5-0.1 0.6 0.2l0.2 2.3c0.1 1.1 0.9 1.9 0.8 3 -0.5 0.6-1.3 0.9-1.9 1.3l-1.7 0.2c-0.5 0.4-0.7 0.9-0.8 1.5 -0.1 1.2-1.4 2-2.3 2.6 -0.3 0.6-0.9 1.5-1.7 1.4 -0.6 0.7-0.6 1.5-0.8 2.3 0.8 0.1 1.5 0.4 2.3 0.2 1-0.2 1.1-1.3 1.7-2 0.7-0.7 1.6 0.1 2.3-0.2 0.9-0.5 1.9-1 2.6-1.9 1.8-0.9 3.8 0.5 5.5-0.4 0.8-0.9 2-0.7 2.6-1.8 0.3-0.8 0.9-1.6 1.1-2.5 -0.2-0.2-0.4-0.4-0.6-0.4 -0.2 0.4-0.4 0.8-0.7 1.1 -1.1 1.8-3 2.3-4.9 2.5 -2.5-0.1-4.8 0.4-6.4 2.5h-0.2c-0.1 0-0.2-0.1-0.2-0.2 0.9-1.5 2.4-2.6 4.1-2.9 2.6-0.3 5.6-0.3 7-2.9 0.9-1.4 0.6-3.3 1.1-4.9 0-0.2 0.1-0.4 0.3-0.3 0.1 0 0.3 0.1 0.3 0.2 -0.2 1.3-0.2 2.7 0.2 4 0.8 1.1 2.4 0.5 3.5 0.3 2-0.4 3.9 0.6 6 0.2 0.2-0.1 0.4-0.2 0.3-0.6 -0.1-0.5-0.4-0.8-0.3-1.4 0.1-0.2 0.2-0.3 0.4-0.3 0.3 0.2 0.3 0.6 0.4 0.9 0.8 2.4 4.4 2.3 4.6 5.1 -0.3 1-1.4 1.4-2.3 1.7 -1.7 0.4-2.1-1.7-3-2.6 -0.8-0.5-2-0.1-2.8 0 -0.2 0.1-0.3 0.3-0.3 0.6l1 1.7c0.4 0.8 1.4-0.1 1.8 0.6 0.4 0.9 1.2 1.9 2.3 1.9 1.6-0.3 3-1 4.4-1.6 0.6-0.7 1.6-0.2 2.3-0.6 0.2-0.1 0.4-0.3 0.5-0.5 4.3 5.7 11.1 9.3 18.7 9.3 7.9 0 14.9-3.9 19.1-9.9 0 0.1 0.1 0.2 0.1 0.4 0.2 0.9 1.1 0.3 1.7 0.6 0.8 1.2 2.1 1.1 3.3 1.5 0.8 0.3 1.6 0.7 2.5 0.6 0.9-0.3 1.4-1.2 1.4-2 0.3-0.4 1 0 1.3-0.5 0.4-0.6 0.9-1.1 1.1-1.7 -0.4-0.5-1.1-0.3-1.7-0.4 -0.1 0.1-0.4 0-0.5 0l0 0c-1.2-0.1-1.3 1.3-1.9 2 -0.2 0.3-0.6 0.2-0.9 0.3 -1-0.4-2.6-0.5-2.6-1.9 0.4-0.8 1.3-1.6 2-2.1 0.8-0.2 1.6-0.6 2.1-1.4 0.4-0.4 0.3-1.3 1-1.3 0.3 0.5 0 1.2-0.3 1.8 1.4 0.2 2.8-0.1 4.1-0.3 2-0.5 3.9 0.6 5.9-0.1 1-0.5 1-1.6 1.2-2.6l0 0 0 0c0-0.5-0.1-1-0.2-1.5 0-0.2-0.1-0.5 0-0.7 0.2-0.1 0.3-0.1 0.4 0 0.8 1.8 0.4 4.1 1.4 5.8 0.7 1.5 2.1 2.5 3.8 2.6 0.1 0 0.1-0.1 0.2 0 2.6-0.5 4.8 0.5 6.4 2.5v0.1c-0.1 0.1-0.2 0.2-0.3 0.2 -0.3-0.4-0.7-0.5-1-0.9 -1.4-1.4-3.5-1.5-5.5-1.2 -2 0.1-3.9-1.7-4.6-3.5 -0.2-0.2-0.2-0.6-0.5-0.6 -0.1 0.1-0.1 0.2-0.2 0.3 0.1 1.3 0.3 2.6 1.2 3.6 0.9 0.4 1.6 1.3 2.6 1.4 1.4-0.3 3-0.2 4.3 0.4 1 0.4 1.8 1.2 2.7 1.8 0.5 0.2 1.2 0.1 1.6-0.2 1.1-0.3 1.3 1 2.1 1.6 0.6 0.5 1.6 0.3 2.4 0.3l0.1-0.1c-0.1-0.8-0.3-1.5-0.6-2.2C169.1 49.7 168.5 48.7 168 47.9" fill="black"></path></svg>