<svg version="1.1" id="Layer_1" xmlns="http://www.w3.org/2000/svg" xmlns:xlink="http://www.w3.org/1999/xlink" x="0px" y="0px"
   width="40px" height="40px" viewBox="0 0 40 40" enable-background="new 0 0 40 40" xml:space="preserve">
<path class="bg-color-body--svg" id="twitter-icon" d="M31.5,12.9c-0.8,0.4-1.8,0.6-2.7,0.7c1-0.6,1.7-1.5,2.1-2.6c-0.9,0.5-1.9,0.9-3,1.1
  c-0.9-0.9-2.1-1.5-3.4-1.5c-3,0-5.3,2.8-4.6,5.8c-3.9-0.2-7.4-2.1-9.7-4.9c-1.2,2.1-0.6,4.9,1.5,6.3c-0.8,0-1.5-0.2-2.1-0.6
  c-0.1,2.2,1.5,4.2,3.8,4.7c-0.7,0.2-1.4,0.2-2.1,0.1c0.6,1.9,2.3,3.2,4.4,3.3c-2,1.6-4.5,2.2-7,2c2.1,1.3,4.6,2.1,7.2,2.1
  c8.8,0,13.7-7.4,13.4-14C30.1,14.6,30.9,13.8,31.5,12.9z" fill="black"></path>
</svg>