<svg xmlns="http://www.w3.org/2000/svg" xmlns:xlink="http://www.w3.org/1999/xlink" id="Layer_1" width="40" height="40" x="0" y="0" enable-background="new 0 0 40 40" version="1.1" viewBox="0 0 40 40" xml:space="preserve"><path id="vimeo-icon" fill="#000" d="M30,15.4c-0.1,1.9-1.4,4.6-4.1,8c-2.7,3.5-5,5.3-6.9,5.3c-1.2,0-2.2-1.1-3-3.2 c-0.5-2-1.1-3.9-1.6-5.9c-0.6-2.2-1.2-3.2-1.9-3.2c-0.1,0-0.7,0.3-1.6,0.9L10,16c1-0.9,2-1.7,2.9-2.6c1.3-1.1,2.3-1.7,3-1.8 c1.6-0.1,2.5,0.9,2.9,3.2c0.4,2.5,0.7,4,0.8,4.6c0.4,2,0.9,3.1,1.5,3.1c0.4,0,1-0.7,1.9-2c0.8-1.3,1.3-2.3,1.3-3 c0.1-1.1-0.3-1.7-1.3-1.7c-0.5,0-1,0.1-1.5,0.3c1-3.2,2.9-4.8,5.6-4.7C29.1,11.4,30.1,12.7,30,15.4z" class="bg-color-body--svg"/></svg>