<svg version="1.1" id="Layer_1" xmlns="http://www.w3.org/2000/svg" xmlns:xlink="http://www.w3.org/1999/xlink" x="0px" y="0px"
   width="40px" height="40px" viewBox="0 0 40 40" enable-background="new 0 0 40 40" xml:space="preserve">
<path class="bg-color-body--svg" id="instagram-6-icon" d="M27.7,18.5H26c0.1,0.5,0.2,1,0.2,1.5c0,3.4-2.8,6.2-6.2,6.2s-6.2-2.8-6.2-6.2
  c0-0.5,0.1-1,0.2-1.5h-1.7V27c0,0.4,0.3,0.8,0.8,0.8h13.8c0.4,0,0.8-0.3,0.8-0.8V18.5L27.7,18.5z M27.7,13.1c0-0.4-0.3-0.8-0.8-0.8
  h-2.3c-0.4,0-0.8,0.3-0.8,0.8v2.3c0,0.4,0.3,0.8,0.8,0.8h2.3c0.4,0,0.8-0.3,0.8-0.8V13.1z M20,16.2c-2.1,0-3.8,1.7-3.8,3.8
  s1.7,3.8,3.8,3.8s3.8-1.7,3.8-3.8S22.1,16.2,20,16.2 M27.7,30H12.3C11,30,10,29,10,27.7V12.3c0-1.3,1-2.3,2.3-2.3h15.4
  c1.3,0,2.3,1,2.3,2.3v15.4C30,29,29,30,27.7,30" fill="black"></path>
</svg>