<?xml version="1.0" standalone="no"?>
<!DOCTYPE svg PUBLIC "-//W3C//DTD SVG 1.1//EN" "http://www.w3.org/Graphics/SVG/1.1/DTD/svg11.dtd">
<svg width="100%" height="100%" viewBox="0 0 40 40" version="1.1" xmlns="http://www.w3.org/2000/svg" xmlns:xlink="http://www.w3.org/1999/xlink" xml:space="preserve" style="fill-rule:evenodd;clip-rule:evenodd;stroke-linejoin:round;stroke-miterlimit:1.41421;">
    <circle cx="20" cy="20" r="20" style="fill:white;"/>
    <path d="M31,13.2C30.2,13.6 29.3,13.8 28.4,13.9C29.3,13.3 30,12.5 30.4,11.4C29.5,11.9 28.6,12.3 27.5,12.5C26.7,11.6 25.5,11.1 24.2,11.1C21.3,11.1 19.1,13.8 19.8,16.6C16,16.4 12.7,14.6 10.5,11.9C9.3,13.9 9.9,16.6 11.9,17.9C11.2,17.9 10.5,17.7 9.9,17.3C9.9,19.4 11.3,21.3 13.5,21.8C12.9,22 12.2,22 11.5,21.9C12.1,23.7 13.7,25 15.7,25C13.8,26.5 11.4,27.2 9,26.9C11,28.2 13.4,28.9 15.9,28.9C24.3,28.9 29,21.8 28.7,15.5C29.6,14.9 30.4,14.1 31,13.2L31,13.2Z" style="fill:black;fill-rule:nonzero;"/>
</svg>
